<?xml version="1.0" encoding="UTF-8" standalone="no"?>
<!-- Created with Inkscape (http://www.inkscape.org/) -->

<svg
   xmlns:dc="http://purl.org/dc/elements/1.1/"
   xmlns:cc="http://creativecommons.org/ns#"
   xmlns:rdf="http://www.w3.org/1999/02/22-rdf-syntax-ns#"
   xmlns:svg="http://www.w3.org/2000/svg"
   xmlns="http://www.w3.org/2000/svg"
   xmlns:sodipodi="http://sodipodi.sourceforge.net/DTD/sodipodi-0.dtd"
   xmlns:inkscape="http://www.inkscape.org/namespaces/inkscape"
   width="210mm"
   height="297mm"
   viewBox="0 0 744.09448819 1052.3622047"
   id="svg2"
   version="1.1"
   inkscape:version="0.91 r13725"
   sodipodi:docname="Bomb.svg"
   inkscape:export-filename="C:\Users\tdres\Documents\MasterBlaster\Art Assets\Inkscape Files\Bomb.png"
   inkscape:export-xdpi="90"
   inkscape:export-ydpi="90">
  <defs
     id="defs4">
    <inkscape:perspective
       sodipodi:type="inkscape:persp3d"
       inkscape:vp_x="0 : 526.1811 : 1"
       inkscape:vp_y="0 : 1000 : 0"
       inkscape:vp_z="744.09449 : 526.1811 : 1"
       inkscape:persp3d-origin="372.04724 : 350.7874 : 1"
       id="perspective3338" />
  </defs>
  <sodipodi:namedview
     id="base"
     pagecolor="#ffffff"
     bordercolor="#666666"
     borderopacity="1.0"
     inkscape:pageopacity="0.0"
     inkscape:pageshadow="2"
     inkscape:zoom="1"
     inkscape:cx="292.63112"
     inkscape:cy="572.09492"
     inkscape:document-units="px"
     inkscape:current-layer="layer1"
     showgrid="false"
     inkscape:window-width="1440"
     inkscape:window-height="897"
     inkscape:window-x="-8"
     inkscape:window-y="-8"
     inkscape:window-maximized="1" />
  <metadata
     id="metadata7">
    <rdf:RDF>
      <cc:Work
         rdf:about="">
        <dc:format>image/svg+xml</dc:format>
        <dc:type
           rdf:resource="http://purl.org/dc/dcmitype/StillImage" />
        <dc:title />
      </cc:Work>
    </rdf:RDF>
  </metadata>
  <g
     inkscape:label="Layer 1"
     inkscape:groupmode="layer"
     id="layer1">
    <ellipse
       style="fill:#28170b;fill-rule:evenodd;stroke:#000000;stroke-width:1px;stroke-linecap:butt;stroke-linejoin:miter;stroke-opacity:1"
       id="path3336"
       cx="348.57144"
       cy="526.64795"
       rx="45.714287"
       ry="42.857143" />
    <rect
       style="fill:#28170b"
       id="rect3368"
       width="17"
       height="19"
       x="568.15802"
       y="204.86903"
       ry="0"
       transform="matrix(0.84594027,0.53327766,-0.53327766,0.84594027,0,0)" />
    <path
       style="fill:none;fill-rule:evenodd;stroke:#000000;stroke-width:1px;stroke-linecap:butt;stroke-linejoin:miter;stroke-opacity:1"
       d="M 424.79688 455.68945 C 424.80005 455.70602 424.80162 455.7201 424.80469 455.73633 C 424.83762 455.73838 424.81598 455.71307 424.79688 455.68945 z M 397.52734 457.32617 C 397.33888 457.34368 397.15745 457.35562 396.9707 457.37305 C 396.95319 457.70868 396.94276 457.72573 396.67969 457.82617 C 396.45731 457.83417 396.31645 457.81157 396.10742 457.72266 C 396.07772 457.71006 396.03494 457.70403 396.02344 457.67383 C 396.01544 457.65363 396.10939 457.67568 396.08789 457.67383 C 396.03219 457.66883 395.97571 457.66802 395.91992 457.66602 C 395.87702 457.65902 395.67982 457.62839 395.67188 457.61719 C 395.65578 457.59449 395.78159 457.59486 395.75391 457.59766 C 395.70071 457.60266 395.64844 457.6339 395.5957 457.625 C 395.5345 457.61463 395.50323 457.60278 395.46484 457.5918 C 395.43897 457.66603 395.36248 457.68561 395.25 457.71484 C 395.1981 457.74769 395.14787 457.78386 395.0918 457.80859 C 394.78954 457.9419 395.00167 457.82983 394.83008 457.86523 C 394.78318 457.87523 394.7403 457.895 394.69336 457.9043 C 394.68436 457.9063 394.67492 457.90044 394.66602 457.89844 C 394.64502 457.90444 394.62452 457.91012 394.60352 457.91602 C 394.54482 457.95112 394.48995 457.99302 394.42773 458.02148 C 394.36476 458.05028 394.10052 458.11784 393.99219 458.10352 C 393.98089 458.11584 393.96918 458.12724 393.95703 458.13867 C 393.80271 458.28418 393.63277 458.4331 393.43555 458.51758 C 393.37985 458.54138 393.3198 458.55126 393.26172 458.56836 C 393.12875 458.58686 393.01106 458.61745 392.87305 458.62695 C 392.85505 458.62795 392.91739 458.58608 392.90039 458.58008 C 392.74292 458.70323 392.6762 458.74323 392.49023 458.80859 C 392.42293 458.83219 392.34424 458.92598 392.28906 458.88086 C 392.27525 458.86956 392.27032 458.85036 392.25781 458.83789 C 392.237 458.83755 392.22745 458.84135 392.21289 458.8457 C 392.12532 458.87252 392.03946 458.90492 391.95312 458.93555 C 391.95268 458.95184 391.95836 458.96973 391.95117 458.98438 C 391.83378 459.22289 391.61226 459.27557 391.75195 459.24023 C 391.85005 459.27673 391.79094 459.14072 391.83594 459.12695 C 391.84644 459.12395 391.8437 459.14936 391.8457 459.16016 C 391.8517 459.20356 391.86433 459.24726 391.86133 459.29102 C 391.84773 459.48933 391.83013 459.50406 391.76953 459.6582 C 391.73084 459.79358 391.64717 459.86433 391.55273 459.91992 C 391.56573 459.91592 391.53845 459.94338 391.53125 459.95508 C 391.45655 460.08302 391.24804 460.21237 391.08203 460.16406 C 391.06269 460.20031 391.04065 460.22885 391.00781 460.21484 C 391.00576 460.21397 390.99649 460.20433 390.99414 460.20312 C 390.96603 460.21474 390.93879 460.22844 390.96289 460.24414 C 390.85726 460.41479 390.78389 460.52351 390.63477 460.64062 C 390.591 460.69413 390.54243 460.76687 390.52539 460.7207 C 390.52422 460.71754 390.5333 460.7125 390.5332 460.70898 C 390.53147 460.7097 390.53103 460.7083 390.5293 460.70898 C 390.52151 460.71814 390.51395 460.72746 390.50586 460.73633 C 390.49948 460.74858 390.48879 460.77245 390.48828 460.77344 C 390.40467 460.91049 390.29156 461.0202 390.16992 461.12109 C 390.16867 461.1556 390.17226 461.18724 390.17383 461.2207 C 390.17883 461.33234 390.19735 461.14094 390.18945 461.11914 C 390.22185 461.16174 390.31794 461.20433 390.28711 461.24805 C 389.91135 461.77965 389.75557 461.79163 389.52539 461.5332 C 389.47627 461.57864 389.43189 461.63112 389.375 461.66602 C 389.32381 461.69742 389.28233 461.69666 389.24023 461.70117 C 389.20567 461.74905 389.17766 461.80333 389.12305 461.83203 C 389.10825 461.84003 389.14333 461.80186 389.14453 461.78516 C 389.14515 461.77616 389.12775 461.79699 389.12305 461.80469 C 389.11085 461.82469 389.10955 461.84989 389.09375 461.86719 C 389.04554 461.92013 388.99063 461.96751 388.9375 462.01562 C 388.93311 462.02393 388.93544 462.02844 388.93164 462.0332 C 388.91894 462.0485 388.89881 462.05666 388.88281 462.06836 C 388.88981 462.06172 388.89722 462.05538 388.9043 462.04883 C 388.65438 462.26406 388.60581 462.28284 388.42188 462.24023 C 388.41966 462.24229 388.4181 462.24362 388.41797 462.24609 C 388.41797 462.24909 388.42683 462.25451 388.42383 462.25391 C 388.41344 462.25172 388.40288 462.2487 388.39258 462.24609 C 388.25567 462.26926 388.1445 462.47727 387.97461 462.33398 C 387.97067 462.33214 387.96179 462.33004 387.95703 462.32812 C 387.78878 462.4325 387.94378 462.37164 387.61133 462.47852 C 387.39117 462.47652 387.17275 462.52014 386.96094 462.43164 C 387.1673 462.48874 387.0887 462.4437 387.01953 462.4668 C 386.8357 462.52812 386.84624 462.52592 386.74023 462.52734 C 386.71469 462.5446 386.68532 462.57038 386.66406 462.58203 C 386.56526 462.63613 386.45984 462.67581 386.35742 462.72266 C 385.99413 462.76016 386.22599 462.74783 385.88086 462.74023 C 385.82016 462.73923 385.75749 462.74612 385.69727 462.73828 C 385.68827 462.73728 385.69279 462.70939 385.68359 462.71289 C 385.59537 462.93894 385.51227 463.16704 385.4082 463.38672 C 385.21271 463.72208 385.08591 463.9232 384.70508 464.02734 C 384.59928 464.07354 384.49744 464.12743 384.38867 464.16602 C 384.04359 464.28857 383.67643 464.37743 383.31641 464.46289 C 383.30081 464.4772 383.27933 464.48593 383.26367 464.5 C 383.1814 464.56438 383.09964 464.62992 383.01172 464.68555 C 382.99583 464.82303 383.01764 464.78638 382.88867 465.00781 C 382.84985 465.04709 382.7954 465.10697 382.8125 465.05078 C 382.7751 465.00761 382.77601 464.9465 382.78711 464.88867 C 382.77405 464.91393 382.72717 464.98653 382.70898 465.01953 C 382.69136 465.11457 382.66168 465.21556 382.58789 465.30469 C 382.5751 465.32012 382.54858 465.32713 382.52344 465.33398 C 382.48656 465.39456 382.48351 465.40732 382.4375 465.48047 C 382.497 465.46367 382.55566 465.43599 382.61719 465.42969 C 382.64269 465.42669 382.57278 465.45555 382.55078 465.46875 C 382.50968 465.49335 382.46681 465.51517 382.42773 465.54297 C 382.36383 465.58837 382.30198 465.63727 382.24023 465.68555 C 382.22366 465.71846 382.21979 465.75263 382.19531 465.78516 C 382.20288 465.79495 382.21613 465.79983 382.22266 465.81055 C 382.27596 465.89815 382.24505 466.01711 382.22266 466.11719 C 382.18176 466.29997 381.96379 466.47864 381.79492 466.53125 C 381.72542 466.55295 381.65038 466.54979 381.57812 466.55859 C 381.53287 466.55082 381.4349 466.55464 381.43164 466.53711 C 381.40916 466.66844 381.36721 466.7932 381.25391 466.89844 C 381.19851 466.94994 381.11684 466.96153 381.04688 466.99023 C 381.02668 466.99823 381.11031 466.9766 381.09961 466.95312 C 380.95152 467.06331 380.80566 467.14778 380.61719 467.16992 C 380.56669 467.17592 380.51542 467.19055 380.46484 467.18555 C 380.38394 467.1773 380.30587 467.15516 380.22656 467.13672 C 380.20458 467.15003 380.1992 467.15626 380.16211 467.17578 C 380.1113 467.20253 380.11689 467.1926 380.09375 467.20117 L 379.67383 467.7168 C 379.41321 468.37478 379.02223 468.8189 378.55078 469.09375 L 371 478.36133 C 383.43374 463.10174 395.06413 458.23218 404.5918 457.37109 C 402.23613 457.3645 399.88273 457.28474 397.52734 457.32617 z M 380.22656 467.13672 C 380.31976 467.08028 380.28276 467.07174 380.18945 467.08398 L 380.16406 467.11523 C 380.16817 467.1189 380.17169 467.12326 380.17578 467.12695 C 380.19271 467.13042 380.2097 467.1328 380.22656 467.13672 z M 388.39258 462.24609 C 388.39927 462.24496 388.40528 462.24038 388.41211 462.24023 C 388.37585 462.23162 388.3716 462.23968 388.31836 462.22656 C 388.34287 462.2329 388.36804 462.23987 388.39258 462.24609 z M 388.41211 462.24023 C 388.41581 462.24111 388.41831 462.23941 388.42188 462.24023 C 388.42325 462.23896 388.42532 462.23671 388.42383 462.23633 C 388.41963 462.23602 388.41625 462.24014 388.41211 462.24023 z M 388.9375 462.01562 C 388.94351 462.00424 388.95542 461.98982 388.94727 461.99219 C 388.93215 461.99653 388.93089 462.01773 388.92188 462.03125 C 388.9273 462.0263 388.93205 462.02063 388.9375 462.01562 z M 411.25391 457.36328 C 418.42687 457.99128 423.83022 460.39987 426.65039 460.63477 L 425.91211 459.94922 C 426.23431 460.08798 427.10969 460.62945 426.87891 460.36523 C 425.26545 458.51802 424.56224 460.42776 423.68555 458.5332 C 423.62333 459.40405 423.57518 459.27162 423.54102 458.19727 C 423.45598 457.97635 423.36552 457.67624 423.27539 457.37305 C 422.84711 457.37204 422.33681 457.36219 421.68945 457.36328 C 419.70991 457.36329 417.72955 457.3636 415.75 457.36328 C 414.25151 457.36324 412.75237 457.36252 411.25391 457.36328 z M 396.57422 457.4082 C 396.49148 457.41562 396.40861 457.42263 396.32617 457.42969 C 396.32037 457.48452 396.32576 457.53936 396.34766 457.5918 C 396.47961 457.90776 396.52076 457.66682 396.57422 457.4082 z M 393.29688 457.68164 C 393.26301 457.70873 393.23004 457.73711 393.19336 457.75977 C 393.16566 457.77687 393.13276 457.78152 393.10156 457.79102 C 393.0609 457.80332 393.01948 457.81393 392.97852 457.82617 C 392.96654 457.83221 392.95548 457.83995 392.94336 457.8457 C 392.92296 457.8557 392.89801 457.85353 392.87891 457.86523 C 392.8556 457.87996 392.83208 457.89583 392.81055 457.91406 C 392.82016 457.91349 392.82144 457.9106 392.83203 457.91016 C 392.88793 457.90816 392.94225 457.92313 392.99805 457.92773 C 393.02615 457.92973 392.90096 457.94102 392.91406 457.91602 C 392.92006 457.90372 393.10015 457.87579 393.15039 457.86719 C 393.24273 457.83014 393.32091 457.76213 393.39648 457.69141 C 393.36179 457.69136 393.32873 457.6992 393.29492 457.70117 C 393.28892 457.70155 393.35196 457.68724 393.29688 457.68164 z M 394.06836 458.02539 C 394.04727 458.04284 394.03016 458.06371 394.01172 458.08398 C 394.02556 458.08121 394.02868 458.07722 394.03711 458.07422 C 394.04801 458.05802 394.08336 458.01289 394.06836 458.02539 z M 390.76953 459.93164 C 390.73438 459.91791 390.77013 459.94708 390.80664 459.97852 C 390.89171 460.04952 390.90681 460.05735 391.03711 460.16992 C 391.03841 460.17104 391.03271 460.17272 391.0332 460.17383 C 391.03731 460.17283 391.0388 460.17289 391.04297 460.17188 C 391.05201 460.1696 391.05189 460.16318 391.05859 460.16016 C 391.05677 460.15941 391.05455 460.16095 391.05273 460.16016 C 390.94147 460.11166 390.88261 459.97579 390.76953 459.93164 z M 390.95898 460.17188 C 390.95608 460.17588 390.95199 460.17945 390.94922 460.18359 C 390.95639 460.18228 390.96136 460.18311 390.96875 460.18164 C 390.96656 460.18029 390.96133 460.17335 390.95898 460.17188 z M 388.45312 461.50977 C 388.40432 461.52432 388.35582 461.53984 388.30664 461.55273 C 388.34375 461.54903 388.38353 461.54402 388.41602 461.54688 C 388.42743 461.53561 388.44305 461.51796 388.45312 461.50977 z M 389.64648 461.55664 C 389.64493 461.57161 389.66676 461.59563 389.72852 461.6582 C 389.68726 461.61756 389.67498 461.58992 389.64648 461.55664 z M 388.5625 461.57031 C 388.55845 461.57038 388.55642 461.57551 388.55273 461.57617 C 388.58881 461.58697 388.61999 461.59133 388.66406 461.60742 C 388.6162 461.58025 388.58649 461.56993 388.5625 461.57031 z M 388.04102 461.63086 C 388.03375 461.63234 388.0268 461.63527 388.01953 461.63672 C 388.20146 461.69292 388.33438 461.7809 388.16406 461.65039 C 388.12325 461.644 388.07654 461.64971 388.04102 461.63086 z M 387.66797 461.68164 C 387.32078 461.72827 386.9662 461.74151 386.60938 461.74609 C 386.60408 461.76822 386.59873 461.79031 386.59375 461.8125 C 386.7718 461.86584 386.88396 461.92931 386.94727 461.99609 C 386.91439 461.95118 386.86151 461.9115 386.82617 461.86719 C 386.78367 461.85599 386.73017 461.86548 386.69922 461.83398 C 386.68212 461.81678 386.74271 461.81424 386.76562 461.80664 C 386.86192 461.77474 386.92334 461.75781 387.02734 461.75391 C 387.17213 461.74891 387.17654 461.77057 387.32617 461.82617 C 387.29797 461.81167 387.26049 461.80725 387.24219 461.78125 C 387.23219 461.76705 387.27762 461.7803 387.29492 461.7793 C 387.3693 461.77513 387.44327 461.775 387.51758 461.77344 C 387.509 461.75268 387.56072 461.74005 387.58398 461.72656 C 387.60247 461.7158 387.63801 461.69728 387.66797 461.68164 z M 388.04688 462.2832 C 388.04073 462.28479 388.03524 462.2888 388.0293 462.29102 C 388.03506 462.29247 388.04115 462.29583 388.04688 462.29688 C 388.05088 462.29757 388.05077 462.2822 388.04688 462.2832 z M 386.82031 462.46875 C 386.81077 462.47667 386.80252 462.4809 386.79297 462.48828 C 386.80247 462.48238 386.81157 462.47754 386.82031 462.46875 z M 384.69727 463.19141 C 384.66189 463.20509 384.62796 463.22259 384.5918 463.23438 C 384.5868 463.23638 384.59972 463.2252 384.60352 463.2207 C 384.56002 463.2422 384.52047 463.27686 384.47266 463.28516 C 384.42656 463.29313 384.4247 463.28985 384.39062 463.29492 C 384.37541 463.32044 384.35776 463.35092 384.32422 463.42188 C 384.35479 463.40694 384.38705 463.39494 384.41797 463.38086 C 384.49727 463.31976 384.60055 463.34119 384.6875 463.30859 C 384.7091 463.30059 384.62959 463.32611 384.61719 463.30664 C 384.60619 463.28924 384.6415 463.27587 384.6543 463.25977 C 384.68548 463.22074 384.68735 463.20374 384.69727 463.19141 z M 382.74414 464.82031 C 382.74943 464.83264 382.75446 464.84505 382.75977 464.85742 C 382.75165 464.82799 382.75102 464.83087 382.74805 464.82031 C 382.74687 464.82072 382.74533 464.81991 382.74414 464.82031 z M 381.44922 466.37695 C 381.44641 466.42915 381.43977 466.47944 381.43164 466.5293 C 381.48858 466.49819 381.56687 466.52974 381.63281 466.51758 C 381.65401 466.51358 381.7058 466.49382 381.6875 466.48242 C 381.61471 466.4371 381.53138 466.4078 381.44922 466.37695 z M 380.3418 466.96875 C 380.35737 466.95161 380.27494 467.01608 380.22656 467.05078 C 380.22921 467.05044 380.23165 467.05324 380.23438 467.05273 C 380.27907 467.04373 380.31117 467.00235 380.3418 466.96875 z "
       id="path3386" />
    <path
       style="fill:none;fill-rule:evenodd;stroke:#000000;stroke-width:1px;stroke-linecap:butt;stroke-linejoin:miter;stroke-opacity:1"
       d="m 385.18519,485.69554 c 0,0 11.11111,-33.33334 45.37037,-10.18519"
       id="path3483"
       inkscape:connector-curvature="0" />
    <path
       style="fill:none;fill-rule:evenodd;stroke:#000000;stroke-width:1px;stroke-linecap:butt;stroke-linejoin:miter;stroke-opacity:1"
       d="m 429.62963,474.58443 -1.85185,-12.96297"
       id="path3485"
       inkscape:connector-curvature="0" />
    <path
       style="fill:none;fill-rule:evenodd;stroke:#000000;stroke-width:1px;stroke-linecap:butt;stroke-linejoin:miter;stroke-opacity:1"
       d="m 404.20712,457.86382 7.44337,-0.32362"
       id="path3489"
       inkscape:connector-curvature="0" />
    <path
       style="fill:#ff7f2a"
       d="m 379.66627,481.33809 c -2.58382,-1.63911 -5.17765,-3.28454 -5.76407,-3.65652 l -1.06621,-0.67633 3.82232,-3.87937 c 6.82235,-6.92418 12.5607,-10.79132 19.67993,-13.26254 3.66248,-1.27131 4.87133,-1.44401 11.00323,-1.57195 6.27823,-0.131 7.71806,0.0494 14.07767,1.7638 1.86893,0.50382 3.91438,1.00623 4.54544,1.11648 l 1.14739,0.20044 0.74027,5.41847 c 0.40714,2.98015 0.82032,5.76015 0.91816,6.17776 l 0.17791,0.7593 -1.27769,-0.80657 c -3.3956,-2.14355 -9.29013,-4.66879 -12.68396,-5.43386 -6.61757,-1.4918 -13.06885,-0.65151 -18.06233,2.35265 -4.03295,2.42629 -8.49277,7.45784 -10.78027,12.16226 -0.62298,1.2812 -1.27832,2.32646 -1.45631,2.32281 -0.17799,-0.004 -2.43766,-1.34773 -5.02148,-2.98683 z"
       id="path3491"
       inkscape:connector-curvature="0" />
    <path
       style="fill:#ff2a2a;fill-rule:evenodd;stroke:#000000;stroke-width:1px;stroke-linecap:butt;stroke-linejoin:miter;stroke-opacity:1"
       d="m 427.50809,460.77644 c 1.02638,-1.71062 0.97087,-0.98911 0.97087,-1.94174 0,-0.10788 -0.0482,-0.22714 0,-0.32363 0.0682,-0.13645 0.2554,-0.18717 0.32363,-0.32362 0.0965,-0.19297 -0.0965,-0.45428 0,-0.64725 0.0682,-0.13645 0.18717,-0.2554 0.32362,-0.32363 0.0965,-0.0482 0.21575,0 0.32363,0 0.10787,0 0.32362,-0.10787 0.32362,0 0,0.10788 -0.3999,-0.0763 -0.32362,0 0.17056,0.17057 0.44654,0.18983 0.64725,0.32363 0.12693,0.0846 0.21575,0.21575 0.32362,0.32362 0.10788,0.10788 0.19669,0.239 0.32363,0.32363 0.2007,0.1338 0.47668,0.15306 0.64725,0.32362 0.4315,0.4315 -0.53938,0.32363 0.32362,0.32363 0.53937,0 0.32362,0.10787 0.32362,-0.64725 0,-0.10788 0.0763,-0.24735 0,-0.32363 -0.0763,-0.0763 -0.27538,0.0965 -0.32362,0 -0.0965,-0.19297 0.0682,-0.44257 0,-0.64725 -0.0316,-0.0948 -0.58406,-0.38681 -0.32362,-0.64725 0.0763,-0.0763 0.21575,0 0.32362,0 0.0785,0 0.96047,-0.0104 0.97087,0 0.0763,0.0763 -0.0965,0.27539 0,0.32363 0.19298,0.0965 0.44258,-0.0682 0.64725,0 0.14473,0.0482 0.1789,0.27538 0.32363,0.32362 0.20468,0.0682 0.46773,-0.11967 0.64725,0 0.2007,0.13381 0.15306,0.47669 0.32362,0.64725 0.15256,0.15256 0.49469,-0.15256 0.64725,0 0.15256,0.15256 -0.0965,0.45428 0,0.64725 0.0682,0.13645 0.239,0.19669 0.32363,0.32363 0.1338,0.2007 0.18982,0.44654 0.32362,0.64725 0.0846,0.12693 0.239,0.19668 0.32362,0.32362 0.0641,0.0962 0.46125,0.69562 0.32363,0.97087 -0.0682,0.13646 -0.21575,0.21575 -0.32363,0.32363 -0.10787,0.10787 -0.18717,0.2554 -0.32362,0.32362 -0.0965,0.0482 -0.24735,-0.0763 -0.32362,0 -0.0763,0.0763 0.0763,0.24735 0,0.32363 -0.15256,0.15256 -0.45428,-0.0965 -0.64725,0 -0.13646,0.0682 -0.18718,0.2554 -0.32363,0.32362 -0.48315,0.24158 -0.57178,-0.55003 -0.97087,0.64725 -0.0341,0.10234 0,0.21575 0,0.32363 0,0.10787 -0.0763,0.24734 0,0.32362 0.0763,0.0763 0.22714,-0.0482 0.32362,0 0.38835,0.19418 0.58253,0.7767 0.97088,0.97087 0.0965,0.0482 0.24734,-0.0763 0.32362,0 0.15256,0.15256 -0.15256,0.4947 0,0.64725 0.0763,0.0763 0.24735,-0.0763 0.32363,0 0.0763,0.0763 0,0.21575 0,0.32363 0,0.26456 0.0547,2.10135 0,2.26537 -0.0482,0.14473 -0.2554,0.18717 -0.32363,0.32363 -0.0585,0.11703 0,1.39302 0,1.61812 0,0.10787 0.0763,0.24734 0,0.32362 -0.0763,0.0763 -0.24734,-0.0763 -0.32362,0 -0.0763,0.0763 0.0763,0.24735 0,0.32363 -0.0968,0.0968 -1.42303,-0.0976 -1.61813,0 -0.0965,0.0482 0.0763,0.24734 0,0.32362 -0.0763,0.0763 -0.24734,-0.0763 -0.32362,0 -0.0763,0.0763 0,0.21575 0,0.32363 0,0.3048 -0.0614,1.43402 0,1.61812 0.19474,0.58423 1.57265,0.72481 1.94175,0.97087 0.0897,0.0598 0.0965,0.27538 0,0.32363 -0.19298,0.0965 -0.44257,-0.0682 -0.64725,0 -0.28946,0.0965 -0.37435,0.5108 -0.64725,0.64725 -0.0965,0.0482 -0.32363,0.10787 -0.32363,0 0,-0.10788 0.4315,0 0.32363,0 -1.07875,0 -0.97088,-0.32363 -0.97088,0.32362 0,0.10788 -0.0482,0.22714 0,0.32363 0.19418,0.38835 0.7767,0.58252 0.97088,0.97087 0.0965,0.19297 -0.0965,0.45428 0,0.64725 0.0682,0.13645 0.239,0.19669 0.32362,0.32362 0.1338,0.20071 0.18982,0.44655 0.32363,0.64725 0.4937,0.74055 0.25617,-0.20236 0.64725,0.97088 0.0682,0.20468 -0.0965,0.45427 0,0.64725 0.67342,1.34684 -0.0224,-0.34597 0.64725,0.32362 0.15255,0.15256 -0.0965,0.45428 0,0.64725 0.0421,0.0843 0.57661,0.39426 0.32362,0.64725 -0.0456,0.0456 -0.90449,0.0332 -0.97087,0 -0.13646,-0.0682 -0.18718,-0.2554 -0.32363,-0.32363 -0.30511,-0.15255 -0.66576,-0.17106 -0.97087,-0.32362 -0.13645,-0.0682 -0.18717,-0.2554 -0.32363,-0.32362 -0.0965,-0.0482 -0.22714,0.0482 -0.32362,0 -0.27291,-0.13646 -0.37435,-0.5108 -0.64725,-0.64725 -0.0965,-0.0482 -0.24735,0.0763 -0.32363,0 -1.26302,-1.26302 0.0749,-0.17381 -0.32362,-0.97088 -0.1855,-0.37101 -0.67525,-0.45016 -0.97087,-0.64725 -0.64112,0.0323 -0.15306,-0.47668 -0.32363,-0.64725 -0.0763,-0.0763 -0.21575,0 -0.32362,0"
       id="path3493"
       inkscape:connector-curvature="0" />
  </g>
</svg>
